<svg width="643" height="270" fill="none" xmlns="http://www.w3.org/2000/svg"><g filter="url(#a)" fill="#001"><path d="M176.074 139.482a1.028 1.028 0 0 1-1.785 0l-9.149-15.928a1.036 1.036 0 0 1 .892-1.554h18.299c.794 0 1.29.863.893 1.554l-9.15 15.928Zm33.852-16.964a1.028 1.028 0 0 1 1.785 0l9.149 15.928a1.036 1.036 0 0 1-.892 1.554h-18.299c-.794 0-1.29-.863-.893-1.554l9.15-15.928Z"/></g><g filter="url(#b)" fill="#001"><path d="M471 136c2.847 0 5-2.15 5-5s-2.153-5-5-5-5 2.15-5 5 2.153 5 5 5Zm-27-5c0 2.85-2.153 5-5 5s-5-2.15-5-5 2.153-5 5-5 5 2.15 5 5Zm16 0c0 2.85-2.153 5-5 5s-5-2.15-5-5 2.153-5 5-5 5 2.15 5 5Z"/></g><g filter="url(#c)"><path fill-rule="evenodd" clip-rule="evenodd" d="M530 89c0-7.822 6.178-14 14-14h83c7.822 0 14 6.178 14 14v83c0 7.822-6.178 14-14 14h-83c-7.822 0-14-6.178-14-14V89Zm14-6c-3.555 0-6 2.445-6 6v83c0 3.555 2.445 6 6 6h83c3.555 0 6-2.445 6-6V89c0-3.555-2.445-6-6-6h-83Z" fill="#001"/></g><g filter="url(#d)"><path fill-rule="evenodd" clip-rule="evenodd" d="M268 89c0-7.822 6.178-14 14-14h83c7.822 0 14 6.178 14 14v83c0 7.822-6.178 14-14 14h-83c-7.822 0-14-6.178-14-14V89Zm14-6c-3.555 0-6 2.445-6 6v83c0 3.555 2.445 6 6 6h83c3.555 0 6-2.445 6-6V89c0-3.555-2.445-6-6-6h-83Z" fill="#001"/></g><g filter="url(#e)"><path fill-rule="evenodd" clip-rule="evenodd" d="M137 165c0-7.822 6.178-14 14-14h83c7.822 0 14 6.178 14 14v83c0 7.822-6.178 14-14 14h-83c-7.822 0-14-6.178-14-14v-83Zm14-6c-3.555 0-6 2.445-6 6v83c0 3.555 2.445 6 6 6h83c3.555 0 6-2.445 6-6v-83c0-3.555-2.445-6-6-6h-83Z" fill="#00BCE6"/></g><g filter="url(#f)"><path fill-rule="evenodd" clip-rule="evenodd" d="M137 14c0-7.822 6.178-14 14-14h83c7.822 0 14 6.178 14 14v83c0 7.822-6.178 14-14 14h-83c-7.822 0-14-6.178-14-14V14Zm14-6c-3.555 0-6 2.445-6 6v83c0 3.555 2.445 6 6 6h83c3.555 0 6-2.445 6-6V14c0-3.555-2.445-6-6-6h-83Z" fill="#FF2163"/></g><g filter="url(#g)"><path fill-rule="evenodd" clip-rule="evenodd" d="M6 89c0-7.822 6.178-14 14-14h83c7.822 0 14 6.178 14 14v83c0 7.822-6.178 14-14 14H20c-7.822 0-14-6.178-14-14V89Zm14-6c-3.555 0-6 2.445-6 6v83c0 3.555 2.445 6 6 6h83c3.555 0 6-2.445 6-6V89c0-3.555-2.445-6-6-6H20Z" fill="#001"/></g><defs><filter id="a" x="159" y="122" width="64" height="26" filterUnits="userSpaceOnUse" color-interpolation-filters="sRGB"><feFlood flood-opacity="0" result="BackgroundImageFix"/><feColorMatrix in="SourceAlpha" values="0 0 0 0 0 0 0 0 0 0 0 0 0 0 0 0 0 0 127 0" result="hardAlpha"/><feOffset dx="-2" dy="4"/><feGaussianBlur stdDeviation="2"/><feColorMatrix values="0 0 0 0 0 0 0 0 0 0 0 0 0 0 0 0 0 0 0.32 0"/><feBlend in2="BackgroundImageFix" result="effect1_dropShadow_4_55"/><feBlend in="SourceGraphic" in2="effect1_dropShadow_4_55" result="shape"/></filter><filter id="b" x="428" y="126" width="50" height="18" filterUnits="userSpaceOnUse" color-interpolation-filters="sRGB"><feFlood flood-opacity="0" result="BackgroundImageFix"/><feColorMatrix in="SourceAlpha" values="0 0 0 0 0 0 0 0 0 0 0 0 0 0 0 0 0 0 127 0" result="hardAlpha"/><feOffset dx="-2" dy="4"/><feGaussianBlur stdDeviation="2"/><feColorMatrix values="0 0 0 0 0 0 0 0 0 0 0 0 0 0 0 0 0 0 0.32 0"/><feBlend in2="BackgroundImageFix" result="effect1_dropShadow_4_55"/><feBlend in="SourceGraphic" in2="effect1_dropShadow_4_55" result="shape"/></filter><filter id="c" x="524" y="75" width="119" height="119" filterUnits="userSpaceOnUse" color-interpolation-filters="sRGB"><feFlood flood-opacity="0" result="BackgroundImageFix"/><feColorMatrix in="SourceAlpha" values="0 0 0 0 0 0 0 0 0 0 0 0 0 0 0 0 0 0 127 0" result="hardAlpha"/><feOffset dx="-2" dy="4"/><feGaussianBlur stdDeviation="2"/><feColorMatrix values="0 0 0 0 0 0 0 0 0 0 0 0 0 0 0 0 0 0 0.32 0"/><feBlend in2="BackgroundImageFix" result="effect1_dropShadow_4_55"/><feBlend in="SourceGraphic" in2="effect1_dropShadow_4_55" result="shape"/></filter><filter id="d" x="262" y="75" width="119" height="119" filterUnits="userSpaceOnUse" color-interpolation-filters="sRGB"><feFlood flood-opacity="0" result="BackgroundImageFix"/><feColorMatrix in="SourceAlpha" values="0 0 0 0 0 0 0 0 0 0 0 0 0 0 0 0 0 0 127 0" result="hardAlpha"/><feOffset dx="-2" dy="4"/><feGaussianBlur stdDeviation="2"/><feColorMatrix values="0 0 0 0 0 0 0 0 0 0 0 0 0 0 0 0 0 0 0.32 0"/><feBlend in2="BackgroundImageFix" result="effect1_dropShadow_4_55"/><feBlend in="SourceGraphic" in2="effect1_dropShadow_4_55" result="shape"/></filter><filter id="e" x="131" y="151" width="119" height="119" filterUnits="userSpaceOnUse" color-interpolation-filters="sRGB"><feFlood flood-opacity="0" result="BackgroundImageFix"/><feColorMatrix in="SourceAlpha" values="0 0 0 0 0 0 0 0 0 0 0 0 0 0 0 0 0 0 127 0" result="hardAlpha"/><feOffset dx="-2" dy="4"/><feGaussianBlur stdDeviation="2"/><feColorMatrix values="0 0 0 0 0 0 0 0 0 0 0 0 0 0 0 0 0 0 0.32 0"/><feBlend in2="BackgroundImageFix" result="effect1_dropShadow_4_55"/><feBlend in="SourceGraphic" in2="effect1_dropShadow_4_55" result="shape"/></filter><filter id="f" x="131" y="0" width="119" height="119" filterUnits="userSpaceOnUse" color-interpolation-filters="sRGB"><feFlood flood-opacity="0" result="BackgroundImageFix"/><feColorMatrix in="SourceAlpha" values="0 0 0 0 0 0 0 0 0 0 0 0 0 0 0 0 0 0 127 0" result="hardAlpha"/><feOffset dx="-2" dy="4"/><feGaussianBlur stdDeviation="2"/><feColorMatrix values="0 0 0 0 0 0 0 0 0 0 0 0 0 0 0 0 0 0 0.32 0"/><feBlend in2="BackgroundImageFix" result="effect1_dropShadow_4_55"/><feBlend in="SourceGraphic" in2="effect1_dropShadow_4_55" result="shape"/></filter><filter id="g" x="0" y="75" width="119" height="119" filterUnits="userSpaceOnUse" color-interpolation-filters="sRGB"><feFlood flood-opacity="0" result="BackgroundImageFix"/><feColorMatrix in="SourceAlpha" values="0 0 0 0 0 0 0 0 0 0 0 0 0 0 0 0 0 0 127 0" result="hardAlpha"/><feOffset dx="-2" dy="4"/><feGaussianBlur stdDeviation="2"/><feColorMatrix values="0 0 0 0 0 0 0 0 0 0 0 0 0 0 0 0 0 0 0.32 0"/><feBlend in2="BackgroundImageFix" result="effect1_dropShadow_4_55"/><feBlend in="SourceGraphic" in2="effect1_dropShadow_4_55" result="shape"/></filter></defs></svg>