<svg xmlns="http://www.w3.org/2000/svg" width="1425" height="425" fill="none">
  <path fill="#fff" d="M0 0h1425v425H0z"/>
  <path fill="#555" fill-rule="evenodd" d="M940.229 93.4c0-7.898 6.394-14.3 14.283-14.3h83.098c7.89 0 14.29 6.402 14.29 14.3v83.2c0 7.898-6.4 14.3-14.29 14.3h-83.098c-7.889 0-14.283-6.402-14.283-14.3V93.4zm14.283-6.5a6.496 6.496 0 0 0-6.493 6.5v83.2c0 3.59 2.907 6.5 6.493 6.5h83.098c3.59 0 6.49-2.91 6.49-6.5V93.4c0-3.59-2.9-6.5-6.49-6.5h-83.098z" clip-rule="evenodd" filter="url(#filter0_d)"/>
  <ellipse cx="850.636" cy="135" fill="#555" filter="url(#filter1_d)" rx="5.194" ry="5.2"/>
  <ellipse cx="868.814" cy="135" fill="#555" filter="url(#filter2_d)" rx="5.194" ry="5.2"/>
  <ellipse cx="886.992" cy="135" fill="#555" filter="url(#filter3_d)" rx="5.194" ry="5.2"/>
  <path fill="#555" fill-rule="evenodd" d="M685.733 93.4c0-7.898 6.394-14.3 14.283-14.3h83.1c7.889 0 14.283 6.402 14.283 14.3v83.2c0 7.898-6.394 14.3-14.283 14.3h-83.1c-7.889 0-14.283-6.402-14.283-14.3V93.4zm14.283-6.5a6.496 6.496 0 0 0-6.493 6.5v83.2c0 3.59 2.907 6.5 6.493 6.5h83.1a6.496 6.496 0 0 0 6.493-6.5V93.4c0-3.59-2.907-6.5-6.493-6.5h-83.1z" clip-rule="evenodd" filter="url(#filter4_d)"/>
  <path fill="#F91365" fill-rule="evenodd" d="M529.919 249.4c0-7.898 6.394-14.3 14.283-14.3h83.1c7.889 0 14.283 6.402 14.283 14.3v83.2c0 7.898-6.394 14.3-14.283 14.3h-83.1c-7.889 0-14.283-6.402-14.283-14.3v-83.2zm14.283-6.5a6.496 6.496 0 0 0-6.493 6.5v83.2c0 3.59 2.907 6.5 6.493 6.5h83.1a6.496 6.496 0 0 0 6.493-6.5v-83.2c0-3.59-2.907-6.5-6.493-6.5h-83.1z" clip-rule="evenodd" filter="url(#filter5_d)"/>
  <path fill="#555" d="M603.02 203.124a1.053 1.053 0 0 1 1.821 0l9.334 16.105a1.047 1.047 0 0 1-.91 1.571h-18.669c-.81 0-1.316-.873-.911-1.571l9.335-16.105z" filter="url(#filter6_d)"/>
  <path fill="#555" d="M568.484 220.276a1.053 1.053 0 0 1-1.821 0l-9.334-16.105a1.047 1.047 0 0 1 .91-1.571h18.669c.81 0 1.316.873.911 1.571l-9.335 16.105z" filter="url(#filter7_d)"/>
  <path fill="#31ADF3" fill-rule="evenodd" d="M529.919 93.4c0-7.898 6.394-14.3 14.283-14.3h83.1c7.889 0 14.283 6.402 14.283 14.3v83.2c0 7.898-6.394 14.3-14.283 14.3h-83.1c-7.889 0-14.283-6.402-14.283-14.3V93.4zm14.283-6.5a6.496 6.496 0 0 0-6.493 6.5v83.2c0 3.59 2.907 6.5 6.493 6.5h83.1a6.496 6.496 0 0 0 6.493-6.5V93.4c0-3.59-2.907-6.5-6.493-6.5h-83.1z" clip-rule="evenodd" filter="url(#filter8_d)"/>
  <path fill="#555" fill-rule="evenodd" d="M374.105 93.4c0-7.898 6.394-14.3 14.283-14.3h83.1c7.889 0 14.283 6.402 14.283 14.3v83.2c0 7.898-6.394 14.3-14.283 14.3h-83.1c-7.889 0-14.283-6.402-14.283-14.3V93.4zm14.283-6.5a6.496 6.496 0 0 0-6.493 6.5v83.2c0 3.59 2.907 6.5 6.493 6.5h83.1a6.496 6.496 0 0 0 6.493-6.5V93.4c0-3.59-2.907-6.5-6.493-6.5h-83.1z" clip-rule="evenodd" filter="url(#filter9_d)"/>
  <defs>
    <filter id="filter0_d" width="115.667" height="115.8" x="937.229" y="79.1" color-interpolation-filters="sRGB" filterUnits="userSpaceOnUse">
      <feFlood flood-opacity="0" result="BackgroundImageFix"/>
      <feColorMatrix in="SourceAlpha" values="0 0 0 0 0 0 0 0 0 0 0 0 0 0 0 0 0 0 127 0"/>
      <feOffset dx="-1" dy="2"/>
      <feGaussianBlur stdDeviation="1"/>
      <feColorMatrix values="0 0 0 0 0 0 0 0 0 0 0 0 0 0 0 0 0 0 0.12 0"/>
      <feBlend in2="BackgroundImageFix" result="effect1_dropShadow"/>
      <feBlend in="SourceGraphic" in2="effect1_dropShadow" result="shape"/>
    </filter>
    <filter id="filter1_d" width="14.388" height="14.4" x="842.442" y="129.8" color-interpolation-filters="sRGB" filterUnits="userSpaceOnUse">
      <feFlood flood-opacity="0" result="BackgroundImageFix"/>
      <feColorMatrix in="SourceAlpha" values="0 0 0 0 0 0 0 0 0 0 0 0 0 0 0 0 0 0 127 0"/>
      <feOffset dx="-1" dy="2"/>
      <feGaussianBlur stdDeviation="1"/>
      <feColorMatrix values="0 0 0 0 0 0 0 0 0 0 0 0 0 0 0 0 0 0 0.12 0"/>
      <feBlend in2="BackgroundImageFix" result="effect1_dropShadow"/>
      <feBlend in="SourceGraphic" in2="effect1_dropShadow" result="shape"/>
    </filter>
    <filter id="filter2_d" width="14.388" height="14.4" x="860.62" y="129.8" color-interpolation-filters="sRGB" filterUnits="userSpaceOnUse">
      <feFlood flood-opacity="0" result="BackgroundImageFix"/>
      <feColorMatrix in="SourceAlpha" values="0 0 0 0 0 0 0 0 0 0 0 0 0 0 0 0 0 0 127 0"/>
      <feOffset dx="-1" dy="2"/>
      <feGaussianBlur stdDeviation="1"/>
      <feColorMatrix values="0 0 0 0 0 0 0 0 0 0 0 0 0 0 0 0 0 0 0.12 0"/>
      <feBlend in2="BackgroundImageFix" result="effect1_dropShadow"/>
      <feBlend in="SourceGraphic" in2="effect1_dropShadow" result="shape"/>
    </filter>
    <filter id="filter3_d" width="14.388" height="14.4" x="878.798" y="129.8" color-interpolation-filters="sRGB" filterUnits="userSpaceOnUse">
      <feFlood flood-opacity="0" result="BackgroundImageFix"/>
      <feColorMatrix in="SourceAlpha" values="0 0 0 0 0 0 0 0 0 0 0 0 0 0 0 0 0 0 127 0"/>
      <feOffset dx="-1" dy="2"/>
      <feGaussianBlur stdDeviation="1"/>
      <feColorMatrix values="0 0 0 0 0 0 0 0 0 0 0 0 0 0 0 0 0 0 0.12 0"/>
      <feBlend in2="BackgroundImageFix" result="effect1_dropShadow"/>
      <feBlend in="SourceGraphic" in2="effect1_dropShadow" result="shape"/>
    </filter>
    <filter id="filter4_d" width="115.667" height="115.8" x="682.733" y="79.1" color-interpolation-filters="sRGB" filterUnits="userSpaceOnUse">
      <feFlood flood-opacity="0" result="BackgroundImageFix"/>
      <feColorMatrix in="SourceAlpha" values="0 0 0 0 0 0 0 0 0 0 0 0 0 0 0 0 0 0 127 0"/>
      <feOffset dx="-1" dy="2"/>
      <feGaussianBlur stdDeviation="1"/>
      <feColorMatrix values="0 0 0 0 0 0 0 0 0 0 0 0 0 0 0 0 0 0 0.12 0"/>
      <feBlend in2="BackgroundImageFix" result="effect1_dropShadow"/>
      <feBlend in="SourceGraphic" in2="effect1_dropShadow" result="shape"/>
    </filter>
    <filter id="filter5_d" width="115.667" height="115.8" x="526.919" y="235.1" color-interpolation-filters="sRGB" filterUnits="userSpaceOnUse">
      <feFlood flood-opacity="0" result="BackgroundImageFix"/>
      <feColorMatrix in="SourceAlpha" values="0 0 0 0 0 0 0 0 0 0 0 0 0 0 0 0 0 0 127 0"/>
      <feOffset dx="-1" dy="2"/>
      <feGaussianBlur stdDeviation="1"/>
      <feColorMatrix values="0 0 0 0 0 0 0 0 0 0 0 0 0 0 0 0 0 0 0.12 0"/>
      <feBlend in2="BackgroundImageFix" result="effect1_dropShadow"/>
      <feBlend in="SourceGraphic" in2="effect1_dropShadow" result="shape"/>
    </filter>
    <filter id="filter6_d" width="24.775" height="22.2" x="590.543" y="202.6" color-interpolation-filters="sRGB" filterUnits="userSpaceOnUse">
      <feFlood flood-opacity="0" result="BackgroundImageFix"/>
      <feColorMatrix in="SourceAlpha" values="0 0 0 0 0 0 0 0 0 0 0 0 0 0 0 0 0 0 127 0"/>
      <feOffset dx="-1" dy="2"/>
      <feGaussianBlur stdDeviation="1"/>
      <feColorMatrix values="0 0 0 0 0 0 0 0 0 0 0 0 0 0 0 0 0 0 0.12 0"/>
      <feBlend in2="BackgroundImageFix" result="effect1_dropShadow"/>
      <feBlend in="SourceGraphic" in2="effect1_dropShadow" result="shape"/>
    </filter>
    <filter id="filter7_d" width="24.775" height="22.2" x="554.186" y="202.6" color-interpolation-filters="sRGB" filterUnits="userSpaceOnUse">
      <feFlood flood-opacity="0" result="BackgroundImageFix"/>
      <feColorMatrix in="SourceAlpha" values="0 0 0 0 0 0 0 0 0 0 0 0 0 0 0 0 0 0 127 0"/>
      <feOffset dx="-1" dy="2"/>
      <feGaussianBlur stdDeviation="1"/>
      <feColorMatrix values="0 0 0 0 0 0 0 0 0 0 0 0 0 0 0 0 0 0 0.12 0"/>
      <feBlend in2="BackgroundImageFix" result="effect1_dropShadow"/>
      <feBlend in="SourceGraphic" in2="effect1_dropShadow" result="shape"/>
    </filter>
    <filter id="filter8_d" width="115.667" height="115.8" x="526.919" y="79.1" color-interpolation-filters="sRGB" filterUnits="userSpaceOnUse">
      <feFlood flood-opacity="0" result="BackgroundImageFix"/>
      <feColorMatrix in="SourceAlpha" values="0 0 0 0 0 0 0 0 0 0 0 0 0 0 0 0 0 0 127 0"/>
      <feOffset dx="-1" dy="2"/>
      <feGaussianBlur stdDeviation="1"/>
      <feColorMatrix values="0 0 0 0 0 0 0 0 0 0 0 0 0 0 0 0 0 0 0.12 0"/>
      <feBlend in2="BackgroundImageFix" result="effect1_dropShadow"/>
      <feBlend in="SourceGraphic" in2="effect1_dropShadow" result="shape"/>
    </filter>
    <filter id="filter9_d" width="115.667" height="115.8" x="371.105" y="79.1" color-interpolation-filters="sRGB" filterUnits="userSpaceOnUse">
      <feFlood flood-opacity="0" result="BackgroundImageFix"/>
      <feColorMatrix in="SourceAlpha" values="0 0 0 0 0 0 0 0 0 0 0 0 0 0 0 0 0 0 127 0"/>
      <feOffset dx="-1" dy="2"/>
      <feGaussianBlur stdDeviation="1"/>
      <feColorMatrix values="0 0 0 0 0 0 0 0 0 0 0 0 0 0 0 0 0 0 0.12 0"/>
      <feBlend in2="BackgroundImageFix" result="effect1_dropShadow"/>
      <feBlend in="SourceGraphic" in2="effect1_dropShadow" result="shape"/>
    </filter>
  </defs>
</svg>
